# xmcd
#
# Track frame offsets: 
#        150
#        17468
#        34344
#        53116
#        75920
#        93924
#        109660
#        125251
#        141030
#
# Disc length: 2103 seconds
#
# Revision: 0
# Processed by: cddbd v1.5.1PL0 Copyright (c) Steve Scherf et al.
# Submitted via: ExactAudioCopy v0.95a4
#
DISCID=62083509
DTITLE=Richard Sparkes - RSVP
DYEAR=2004
DGENRE=Blues
TTITLE0=Oh Babe
TTITLE1=Looking For Love
TTITLE2=When You Comin' Home
TTITLE3=Where Have You Gone
TTITLE4=Hey Pretty Mama
TTITLE5=Right The Wrongs
TTITLE6=Always On My Mind
TTITLE7=Right The Wrongs (Female)
TTITLE8=Looking For Love (Instrumental)
EXTD=
EXTT0=
EXTT1=
EXTT2=
EXTT3=
EXTT4=
EXTT5=
EXTT6=
EXTT7=
EXTT8=
PLAYORDER=
